<svg width="57" height="57" viewBox="0 0 57 57" fill="none" xmlns="http://www.w3.org/2000/svg">
<g clip-path="url(#clip0_216_5051)">
<path d="M0.0541992 57C0.0541992 38.0525 0.0541992 19.105 0.0795829 0.133684C19.0621 0.109863 38.0192 0.109863 57.0023 0.109863C57.0023 0.273021 57.0023 0.397574 57.0023 0.522128C57.0023 19.2301 57.0023 37.9381 57.002 56.6461C57.002 56.7633 56.9968 56.8806 56.9702 56.9986C37.9823 56.9996 19.0182 56.9998 0.0541992 57ZM42.079 35.1071C41.85 34.9178 41.6031 34.7461 41.3949 34.5361C40.4647 33.5977 40.441 31.3299 42.4057 30.7195C43.0533 30.5183 43.7067 30.5406 44.3572 30.6982C45.2817 30.9222 45.9174 31.5302 46.4317 32.2914C46.5556 32.4747 46.6715 32.6633 46.7991 32.8619C48.1925 31.967 49.5636 31.0864 50.9486 30.1968C50.1036 28.7186 49.041 27.4849 47.4932 26.7665C45.3063 25.7515 43.0263 25.6739 40.724 26.276C38.8566 26.7644 37.3819 27.8249 36.4065 29.5198C35.6607 30.8156 35.4464 32.226 35.5455 33.6976C35.6746 35.6155 36.388 37.2617 37.8184 38.5743C38.9654 39.6268 40.3231 40.3308 41.731 40.954C42.8272 41.4392 43.9361 41.8991 45.01 42.4297C45.5363 42.6897 46.0414 43.0348 46.4752 43.4302C47.1363 44.0326 47.2918 44.8424 47.0997 45.6955C46.882 46.6625 46.1973 47.2427 45.2978 47.5087C43.0684 48.1679 41.0612 47.7752 39.4116 46.0597C38.9832 45.6141 38.6339 45.0925 38.2282 44.5806C36.8143 45.3991 35.3739 46.2328 33.941 47.0623C33.9488 47.1064 33.9485 47.1247 33.9553 47.1396C33.9779 47.1888 34.0017 47.2374 34.0274 47.285C34.8746 48.8551 36.0386 50.1401 37.5987 51.0067C40.8267 52.7999 44.2226 52.9917 47.6971 51.8648C49.3232 51.3374 50.6502 50.3513 51.5332 48.8541C52.6475 46.965 52.7315 44.9333 52.2498 42.8551C51.8423 41.0966 50.7585 39.7991 49.3165 38.7713C48.0224 37.8488 46.582 37.2063 45.138 36.565C44.1179 36.1118 43.1201 35.6084 42.079 35.1071ZM17.1364 50.5109C17.7174 51.0198 18.3578 51.4387 19.0664 51.7456C21.1822 52.662 23.3706 52.7456 25.5892 52.2436C27.4172 51.8301 28.8938 50.8758 29.8726 49.2382C30.6721 47.9006 30.9928 46.4263 30.9969 44.8897C31.0134 38.7329 31.0083 32.576 31.0102 26.4192C31.0102 26.3598 30.9976 26.3005 30.9904 26.2377C29.2143 26.2377 27.4578 26.2377 25.6729 26.2377C25.6729 26.3653 25.6729 26.4799 25.6729 26.5946C25.6729 32.4626 25.6752 38.3306 25.6686 44.1985C25.6681 44.666 25.6375 45.1382 25.5664 45.5998C25.4502 46.355 25.1595 47.0245 24.4475 47.4215C23.3928 48.0094 21.7213 47.862 20.8424 47.0399C20.4335 46.6575 20.1209 46.1694 19.782 45.7161C19.6229 45.5033 19.5051 45.2597 19.3611 45.0176C17.9024 45.9007 16.4635 46.7719 15.0162 47.6481C15.5381 48.7512 16.2159 49.697 17.1364 50.5109Z" fill="#F0DB4F"/>
<path d="M56.9941 56.9979C56.9969 56.8806 57.0021 56.7634 57.0021 56.6461C57.0024 37.9381 57.0024 19.2302 57.0024 0.522167C57.0024 0.397613 57.0024 0.27306 57.0024 0.109902C38.0193 0.109902 19.0621 0.109902 0.079654 0.109144C0.0632944 0.0903254 0.0713748 0.0572483 0.0814937 0.0566124C0.153436 0.0520917 0.225795 0.0542037 0.298021 0.0542037C19.2123 0.0542037 38.1265 0.0542037 57.0543 0.0542037C57.0543 19.0542 57.0543 38.0542 57.0268 57.04C56.9976 57.0165 56.9958 57.0072 56.9941 56.9979Z" fill="#FEFCF1"/>
<path d="M56.9701 56.9987C56.9957 57.0072 56.9975 57.0165 56.9996 57.04C38.0181 57.0542 19.0361 57.0542 0.0541992 57.0271C19.0182 56.9998 37.9823 56.9996 56.9701 56.9987Z" fill="#F3E378"/>
</g>
<defs>
<clipPath id="clip0_216_5051">
<rect width="57" height="57" rx="5" fill="white"/>
</clipPath>
</defs>
</svg>
