<svg width="82" height="77" viewBox="0 0 82 77" fill="none" xmlns="http://www.w3.org/2000/svg">
<g clip-path="url(#clip0_426_68)">
<path d="M15.0503 64C15.0503 46.3822 15.0503 28.7643 15.0739 11.1243C32.7243 11.1022 50.3511 11.1022 68.0021 11.1022C68.0021 11.2539 68.0021 11.3697 68.0021 11.4855C68.0021 28.8806 68.0021 46.2758 68.0017 63.6709C68.0017 63.78 67.9969 63.889 67.9721 63.9987C50.3167 63.9997 32.6835 63.9998 15.0503 64ZM54.126 43.6434C53.913 43.4674 53.6835 43.3078 53.4899 43.1126C52.6249 42.24 52.6029 40.1314 54.4297 39.5638C55.0319 39.3767 55.6395 39.3974 56.2443 39.5439C57.104 39.7522 57.6951 40.3176 58.1733 41.0254C58.2884 41.1958 58.3962 41.3712 58.5149 41.5558C59.8104 40.7237 61.0854 39.9049 62.3732 39.0778C61.5874 37.7033 60.5994 36.5561 59.1602 35.8882C57.1268 34.9444 55.0068 34.8723 52.8661 35.4321C51.1297 35.8862 49.7585 36.8723 48.8515 38.4482C48.1581 39.6531 47.9589 40.9645 48.051 42.3329C48.171 44.1162 48.8343 45.6468 50.1644 46.8674C51.2309 47.846 52.4933 48.5006 53.8024 49.08C54.8216 49.5312 55.8527 49.9589 56.8513 50.4522C57.3407 50.6939 57.8103 51.0148 58.2137 51.3825C58.8283 51.9426 58.973 52.6956 58.7944 53.4888C58.592 54.3879 57.9552 54.9275 57.1189 55.1748C55.046 55.7877 53.1796 55.4226 51.6458 53.8274C51.2474 53.4132 50.9226 52.9282 50.5454 52.4522C49.2307 53.2132 47.8915 53.9884 46.5591 54.7597C46.5663 54.8007 46.566 54.8177 46.5724 54.8316C46.5934 54.8773 46.6155 54.9225 46.6394 54.9668C47.4271 56.4266 48.5095 57.6215 49.9601 58.4273C52.9616 60.0947 56.1192 60.273 59.3499 59.2252C60.8618 58.7348 62.0957 57.8179 62.9168 56.4258C63.9529 54.6692 64.031 52.7801 63.5831 50.8477C63.2041 49.2127 62.1964 48.0062 60.8556 47.0505C59.6523 46.1928 58.313 45.5954 56.9704 44.999C56.0218 44.5777 55.094 44.1096 54.126 43.6434ZM30.9337 57.9663C31.474 58.4395 32.0694 58.829 32.7283 59.1143C34.6956 59.9664 36.7305 60.0441 38.7934 59.5774C40.4931 59.1929 41.866 58.3056 42.7761 56.7829C43.5196 55.5391 43.8177 54.1683 43.8216 52.7395C43.8369 47.0148 43.8321 41.29 43.834 35.5652C43.834 35.51 43.8222 35.4548 43.8156 35.3965C42.1641 35.3965 40.5309 35.3965 38.8712 35.3965C38.8712 35.5151 38.8712 35.6217 38.8712 35.7283C38.8712 41.1845 38.8733 46.6407 38.8672 52.0969C38.8667 52.5316 38.8382 52.9706 38.7722 53.3998C38.6642 54.102 38.3938 54.7246 37.7317 55.0936C36.7511 55.6403 35.1969 55.5033 34.3797 54.7389C33.9995 54.3833 33.7088 53.9294 33.3937 53.508C33.2458 53.3101 33.1362 53.0836 33.0023 52.8585C31.646 53.6796 30.3081 54.4897 28.9623 55.3044C29.4476 56.3301 30.0778 57.2095 30.9337 57.9663Z" fill="#F0DB4F"/>
<path d="M67.9946 63.998C67.9971 63.889 68.002 63.78 68.002 63.6709C68.0023 46.2758 68.0023 28.8807 68.0023 11.4855C68.0023 11.3697 68.0023 11.2539 68.0023 11.1022C50.3513 11.1022 32.7245 11.1022 15.0741 11.1015C15.0589 11.084 15.0664 11.0532 15.0758 11.0526C15.1427 11.0484 15.21 11.0504 15.2772 11.0504C32.8641 11.0504 50.451 11.0504 68.0505 11.0504C68.0505 28.7171 68.0505 46.3837 68.025 64.0372C67.9978 64.0153 67.9962 64.0067 67.9946 63.998Z" fill="#FEFCF1"/>
<path d="M67.9721 63.9988C67.9959 64.0067 67.9976 64.0153 67.9996 64.0372C50.35 64.0504 32.7002 64.0504 15.0503 64.0252C32.6835 63.9999 50.3167 63.9997 67.9721 63.9988Z" fill="#F3E378"/>
</g>
<defs>
<clipPath id="clip0_426_68">
<rect x="15" y="11" width="53" height="53" rx="5" fill="white"/>
</clipPath>
</defs>
</svg>
