<svg width="82" height="77" viewBox="0 0 82 77" fill="none" xmlns="http://www.w3.org/2000/svg">
<g clip-path="url(#clip0_426_68)">
<path d="M40.7261 14.0004C38.8293 14.0092 37.0179 14.1718 35.4241 14.4552C30.7289 15.2888 29.8764 17.0334 29.8764 20.2509V24.5003H40.9718V25.9167H29.8764H25.7125C22.4878 25.9167 19.6643 27.8644 18.7811 31.5695C17.7624 35.8164 17.7172 38.4666 18.7811 42.9011C19.5698 46.2019 21.4533 48.5538 24.6779 48.5538H28.4928V43.4598C28.4928 39.7797 31.6614 36.5336 35.4241 36.5336H46.5066C49.5915 36.5336 52.0542 33.9811 52.0542 30.8678V20.2509C52.0542 17.2293 49.5176 14.9595 46.5066 14.4552C44.6005 14.1364 42.6229 13.9915 40.7261 14.0004ZM34.7258 17.418C35.8719 17.418 36.8078 18.3739 36.8078 19.5492C36.8078 20.7203 35.8719 21.6674 34.7258 21.6674C33.5756 21.6674 32.6438 20.7203 32.6438 19.5492C32.6438 18.3739 33.5756 17.418 34.7258 17.418Z" fill="url(#paint0_linear_426_68)"/>
<path d="M53.4379 25.9167V30.8678C53.4379 34.7063 50.1995 37.937 46.5066 37.937H35.4241C32.3885 37.937 29.8765 40.5479 29.8765 43.6028V54.2197C29.8765 57.2413 32.4912 59.0186 35.4241 59.8854C38.9363 60.9232 42.3043 61.1108 46.5066 59.8854C49.2999 59.0727 52.0543 57.4372 52.0543 54.2197V49.9703H40.9718V48.5539H52.0543H57.6019C60.8266 48.5539 62.0282 46.2936 63.1496 42.9011C64.308 39.4085 64.2587 36.0499 63.1496 31.5695C62.3527 28.3437 60.8307 25.9167 57.6019 25.9167H53.4379ZM47.2049 52.8032C48.3551 52.8032 49.2869 53.7503 49.2869 54.9214C49.2869 56.0967 48.3551 57.0526 47.2049 57.0526C46.0588 57.0526 45.1229 56.0967 45.1229 54.9214C45.1229 53.7503 46.0588 52.8032 47.2049 52.8032Z" fill="url(#paint1_linear_426_68)"/>
<path opacity="0.44382" d="M41.0977 70C49.3095 70 55.9664 68.7028 55.9664 67.1027C55.9664 65.5026 49.3095 64.2054 41.0977 64.2054C32.8859 64.2054 26.229 65.5026 26.229 67.1027C26.229 68.7028 32.8859 70 41.0977 70Z" fill="url(#paint2_radial_426_68)"/>
</g>
<defs>
<linearGradient id="paint0_linear_426_68" x1="18" y1="14" x2="43.6896" y2="35.7846" gradientUnits="userSpaceOnUse">
<stop stop-color="#5A9FD4"/>
<stop offset="1" stop-color="#306998"/>
</linearGradient>
<linearGradient id="paint1_linear_426_68" x1="46.9382" y1="54.5641" x2="37.7" y2="41.6816" gradientUnits="userSpaceOnUse">
<stop stop-color="#FFD43B"/>
<stop offset="1" stop-color="#FFE873"/>
</linearGradient>
<radialGradient id="paint2_radial_426_68" cx="0" cy="0" r="1" gradientUnits="userSpaceOnUse" gradientTransform="translate(41.0977 67.1027) rotate(-90) scale(2.89727 12.6727)">
<stop stop-color="#B8B8B8" stop-opacity="0.498039"/>
<stop offset="1" stop-color="#7F7F7F" stop-opacity="0"/>
</radialGradient>
<clipPath id="clip0_426_68">
<rect width="46" height="56" fill="white" transform="translate(18 14)"/>
</clipPath>
</defs>
</svg>
