<svg width="82" height="77" viewBox="0 0 82 77" fill="none" xmlns="http://www.w3.org/2000/svg">
<g clip-path="url(#clip0_426_68)">
<path d="M41.5004 44.4374C44.3062 44.4374 46.5808 42.1628 46.5808 39.3569C46.5808 36.5511 44.3062 34.2765 41.5004 34.2765C38.6945 34.2765 36.4199 36.5511 36.4199 39.3569C36.4199 42.1628 38.6945 44.4374 41.5004 44.4374Z" fill="#61DAFB"/>
<path d="M41.5001 49.7656C56.5559 49.7656 68.761 45.1055 68.761 39.3569C68.761 33.6084 56.5559 28.9482 41.5001 28.9482C26.4444 28.9482 14.2393 33.6084 14.2393 39.3569C14.2393 45.1055 26.4444 49.7656 41.5001 49.7656Z" stroke="#61DAFB" stroke-width="2.47826"/>
<path d="M32.4853 44.5612C40.0132 57.5999 50.1516 65.8398 55.13 62.9655C60.1084 60.0912 58.0416 47.1912 50.5137 34.1526C42.9859 21.1139 32.8475 12.874 27.8691 15.7483C22.8907 18.6226 24.9575 31.5226 32.4853 44.5612Z" stroke="#61DAFB" stroke-width="2.47826"/>
<path d="M32.4857 34.1524C24.9578 47.1911 22.8911 60.0911 27.8695 62.9654C32.8479 65.8397 42.9862 57.5998 50.5141 44.5611C58.042 31.5224 60.1087 18.6224 55.1303 15.7482C50.1519 12.8739 40.0136 21.1138 32.4857 34.1524Z" stroke="#61DAFB" stroke-width="2.47826"/>
</g>
<defs>
<clipPath id="clip0_426_68">
<rect width="57" height="50.7138" fill="white" transform="translate(13 14)"/>
</clipPath>
</defs>
</svg>
