<svg width="57" height="51" viewBox="0 0 57 51" fill="none" xmlns="http://www.w3.org/2000/svg">
<g clip-path="url(#clip0_219_5078)">
<path d="M28.5004 30.4374C31.3062 30.4374 33.5808 28.1628 33.5808 25.3569C33.5808 22.5511 31.3062 20.2765 28.5004 20.2765C25.6945 20.2765 23.4199 22.5511 23.4199 25.3569C23.4199 28.1628 25.6945 30.4374 28.5004 30.4374Z" fill="#61DAFB"/>
<path d="M28.5001 35.7656C43.5559 35.7656 55.761 31.1055 55.761 25.3569C55.761 19.6084 43.5559 14.9482 28.5001 14.9482C13.4444 14.9482 1.23926 19.6084 1.23926 25.3569C1.23926 31.1055 13.4444 35.7656 28.5001 35.7656Z" stroke="#61DAFB" stroke-width="2.47826"/>
<path d="M19.4853 30.5612C27.0132 43.5999 37.1516 51.8398 42.13 48.9655C47.1084 46.0912 45.0416 33.1912 37.5137 20.1526C29.9859 7.11388 19.8475 -1.12599 14.8691 1.74829C9.8907 4.62258 11.9575 17.5226 19.4853 30.5612Z" stroke="#61DAFB" stroke-width="2.47826"/>
<path d="M19.4857 20.1524C11.9578 33.1911 9.89106 46.0911 14.8695 48.9654C19.8479 51.8397 29.9862 43.5998 37.5141 30.5611C45.042 17.5224 47.1087 4.62245 42.1303 1.74817C37.1519 -1.12612 27.0136 7.11375 19.4857 20.1524Z" stroke="#61DAFB" stroke-width="2.47826"/>
</g>
<defs>
<clipPath id="clip0_219_5078">
<rect width="57" height="50.7138" fill="white"/>
</clipPath>
</defs>
</svg>
